<svg xmlns="http://www.w3.org/2000/svg" width="22.3" height="22.3" viewBox="0 0 22.3 22.3">
  <g id="Group_12580" data-name="Group 12580" transform="translate(-153 -6527)">
    <g id="Ellipse_671" data-name="Ellipse 671" transform="translate(153 6527)" fill="none" stroke="#0b5d9c" stroke-width="1">
      <circle cx="11.15" cy="11.15" r="11.15" stroke="none"/>
      <circle cx="11.15" cy="11.15" r="10.65" fill="none"/>
    </g>
    <g id="Group_12579" data-name="Group 12579" transform="translate(0.5 0.5)">
      <path id="Path_70349" data-name="Path 70349" d="M5.265,3h4.53a2.265,2.265,0,0,1,2.265,2.265v4.53a2.265,2.265,0,0,1-2.265,2.265H5.265A2.265,2.265,0,0,1,3,9.795V5.265A2.265,2.265,0,0,1,5.265,3Z" transform="translate(156.5 6530.5)" fill="none" stroke="#0b5d9c" stroke-linecap="round" stroke-linejoin="round" stroke-width="1"/>
      <path id="Path_70350" data-name="Path 70350" d="M15.669,13.481a1.812,1.812,0,1,1-1.527-1.527,1.812,1.812,0,0,1,1.527,1.527Z" transform="translate(149.944 6524.429)" fill="none" stroke="#0b5d9c" stroke-linecap="round" stroke-linejoin="round" stroke-width="1"/>
      <path id="Path_70351" data-name="Path 70351" d="M26.25,9.75h0" transform="translate(140.043 6525.954)" fill="none" stroke="#0b5d9c" stroke-linecap="round" stroke-linejoin="round" stroke-width="1"/>
    </g>
  </g>
</svg>
